<?xml version="1.0" encoding="UTF-8" standalone="no"?>
<svg width="40mm" height="40mm" viewBox="0 0 40 40" version="1.1" id="svg1" xmlns:xlink="http://www.w3.org/1999/xlink" xmlns="http://www.w3.org/2000/svg">
  <defs>
    <linearGradient id="lg1">
      <stop style="stop-color:#ffffff" offset="0" id="s23" />
      <stop style="stop-color:#fef486" offset="1" id="s24" />
    </linearGradient>
    <linearGradient id="lg2">
      <stop style="stop-color:#9d572d" offset="0.18395303" id="s21" />
      <stop style="stop-color:#ff962f" offset="0.7632094" id="s22" />
    </linearGradient>
    <linearGradient xlink:href="#lg2" id="lg3" x1="14.712" y1="-3.816" x2="32.158" y2="6.255" gradientUnits="userSpaceOnUse" gradientTransform="matrix(0.894,0.447,-0.894,0.447,0,0)" />
    <radialGradient xlink:href="#lg1" id="rg1" cx="28.543" cy="15.671" fx="28.543" fy="15.671" r="8.648" gradientTransform="matrix(1,0,0,0.524,0,7.458)" gradientUnits="userSpaceOnUse" />
  </defs>
  <path style="stroke:#08439f;stroke-width:1" d="M 37.493,22.649 C 31.671,19.764 25.849,16.87 20.02,13.99 14.23,16.82 8.43,19.66 2.63,22.49 m 34.56,6.35 C 31.38,25.96 25.56,23.07 19.74,20.19 14,22.99 8.267,25.8 2.53,28.60 M 37.22,17.35 C 31.4,14.47 25.58,11.58 19.76,8.7 m 0.26,0 C 14.23,11.53 8.43,14.36 2.63,17.2 M 31.65,31.22 C 25.82,28.34 20,25.45 14.18,22.57 M 25.56,33.87 C 19.74,30.98 13.92,28.1 8.09,25.21M 25.9,22.19 C 20.08,25.08 14.25,27.96 8.43,30.85M 36.88,22.99 C 29.41,26.71 21.94,30.42 14.47,34.13" />
  <path style="fill:none;stroke:#488bf3;stroke-width:1;stroke-linecap:round" d="M 37.49,23.36 C 31.67,26.25 25.84,29.13 20.02,32.02 14.23,29.18 8.43,26.35 2.63,23.52 M 37.2,17.16 C 31.38,20.05 25.56,22.93 19.74,25.82 14.01,23.02 8.29,20.216 2.57,17.41 M 37.24,28.3 C 31.62,31.12 25.99,33.94 20.36,36.76 m -0.53,0.13 C 14.12,33.98 8.41,31.05 2.69,28.13M 19.98,37.05 c 0,-5.91 0,-11.82 0,-17.73 2.99,-1.43 5.91,-3.03 9.03,-4.16 0.97,-0.38 1.94,-0.77 2.91,-1.16 m -5.86,20.42 c 0,-5.91 0,-11.82 0,-17.73 m 5.82,14.82 c 0,-5.91 0,-11.82 0,-17.73 M 13.9,34.41 c 0,-5.91 0,-11.82 0,-17.73 M 8.08,31.23 c 0,-5.91 0,-11.82 0,-17.73 M 37.17,28.41 c -0.02,-5.63 -0.05,-11.26 -0.07,-16.89" />
  <path style="fill:#6d433a" d="m 2.08,10.99 c 6.55e-4,5.82 0.15,11.64 0.07,17.47 1.55,1.51 3.83,0.13 5.37,-0.71 1.85,-1.02 4.24,-2.53 6.33,-1.22 1.95,1.12 3.01,3.64 5.35,4.09 0.22,-0.01 0.65,0.07 0.73,-0.07 0.24,-0.45 -0.32,-2.895 -0.02,-3.96 0,-2.22 0,-4.44 0.02,-6.66 -5.9,-3.07 -11.87,-6.03 -17.87,-8.92 z" />
  <path style="fill:#af6135" d="m 37.77,11.04 c -5.93,3.02 -11.95,5.89 -17.86,8.96 0.02,3.51 0.04,7.03 0.04,10.55 1.738,-0.517 1.751,-2.67 2.126,-4.13 0.11,-1.78 1.67,-3.77 3.63,-2.76 1.48,0.525 3.22,1.68 4.72,0.52 2.92,-1.87 3.512,-5.56 4.77,-8.53 0.644,-1.6 1.45,-3.16 2.59,-4.47 l -0.03,-0.13 z" />
  <path style="fill:url(#lg3)" d="M 20.01,2.1 C 25.97,5.06 31.931,8.02 37.88,10.98 31.94,13.99 26,16.99 20.06,19.99 14.11,17.01 8.15,14.04 2.2,11.06 8.14,8.07 14.07,5.09 20.01,2.1 Z" />
  <path style="fill:none;stroke:#301008;stroke-width:0.5" d="M 20.03,2.3 C 14.12,5.23 8.21,8.16 2.3,11.08 2.29,16.98 2.28,22.88 2.27,28.79 8.18,31.77 14.09,34.75 20,37.73 25.94,34.78 31.88,31.82 37.81,28.87 37.8,22.953 37.78,17.03 37.76,11.11 31.85,8.17 25.94,5.24 20.03,2.305 Z" />
  <path style="stroke:url(#rg1);stroke-width:0.5" d="m 20.22,19.92 c 5.64,-2.82 11.28,-5.65 16.93,-8.48" />
  <path d="M 19.68,19.96 C 14.04,17.13 8.39,14.307 2.75,11.48" style="stroke:#fef486;stroke-width:0.5;stroke-linecap:round" />
  <path style="stroke:#805035;stroke-width:0.5;stroke-linecap:round" d="m 19.87,20.69 c 0.03,3.11 0.07,6.22 0.10,9.33" />
</svg>
